<svg id="Logo" xmlns="http://www.w3.org/2000/svg" viewBox="0 0 531.02 281.7"><defs><style>.cls-1{fill:#fff;}</style></defs><g id="ACC_logo_BLANC_WHITE" data-name="ACC  logo BLANC/WHITE"><path class="cls-1" d="M11.7,252.6h3.86L27,281.29H21.43l-2.3-6.23h-11l-2.31,6.23H.2Zm5.81,18-3.86-10.48L9.77,270.65Z"/><path class="cls-1" d="M33.57,270.1V252.6h5.14v16.92c0,4.63,1.22,7.21,5.83,7.21s5.83-2.58,5.83-7.21V252.6h5.16v17.3c0,7.23-3.29,11.8-11,11.8S33.57,277.13,33.57,270.1Z"/><path class="cls-1" d="M72.24,257.21h-9V252.6H86.38v4.61h-9v24.08H72.24Z"/><path class="cls-1" d="M91.84,266.94c0-7.82,4.37-14.77,13.85-14.77s13.85,7,13.85,14.77-4.36,14.76-13.85,14.76S91.84,274.76,91.84,266.94Zm22.26,0c0-5.41-2.25-10.18-8.41-10.18s-8.4,4.77-8.4,10.18,2.25,10.19,8.4,10.19S114.1,272.36,114.1,266.94Z"/><path class="cls-1" d="M158.2,252.6v28.69h-5V259.87l-7.11,18.93h-5L134,259.87v21.42h-5V252.6h7L143.63,273l7.62-20.41Z"/><path class="cls-1" d="M167.73,266.94c0-7.82,4.36-14.77,13.85-14.77s13.85,7,13.85,14.77-4.37,14.76-13.85,14.76S167.73,274.76,167.73,266.94Zm22.26,0c0-5.41-2.26-10.18-8.41-10.18s-8.41,4.77-8.41,10.18,2.25,10.19,8.41,10.19S190,272.36,190,266.94Z"/><path class="cls-1" d="M209.87,257.21h-9V252.6H224v4.61h-9v24.08h-5.16Z"/><path class="cls-1" d="M232.29,252.6h5.16v28.69h-5.16Z"/><path class="cls-1" d="M272.34,252.6l-11.43,28.69h-3.86l-11.5-28.69h5.71L259,272.93l7.7-20.33Z"/><path class="cls-1" d="M280.45,252.6h19.09v4.73H285.61v7.25h13v4.73h-13v7.11h13.93v4.87H280.45Z"/><path class="cls-1" d="M322.06,266.94c0-7.86,4.41-14.81,13.85-14.81a13.06,13.06,0,0,1,12.55,8.25l-4.81,1.9c-1.08-3.77-4-5.23-7.78-5.23-6.07,0-8.69,4.36-8.69,9.68,0,5.71,2.62,10.08,8.77,10.08,3.7,0,6.24-1.46,7.78-5.32l4.77,1.95A13,13,0,0,1,336,281.7C326.51,281.7,322.06,274.82,322.06,266.94Z"/><path class="cls-1" d="M357.34,252.6h19.09v4.73H362.5v7.25h13v4.73h-13v7.11h13.93v4.87H357.34Z"/><path class="cls-1" d="M386.79,252.6H392v23.82h12.27v4.87H386.79Z"/><path class="cls-1" d="M412.54,252.6h5.16v23.82H430v4.87H412.54Z"/><path class="cls-1" d="M435.64,273.19l5.12-1.3c.36,3.58,2.9,5.16,5.94,5.16s4.74-1.62,4.74-3.66c0-5.95-13.89-3.95-13.89-13.3,0-5.07,4.12-7.92,8.95-7.92a9.61,9.61,0,0,1,8.74,5L451,259.83a5.2,5.2,0,0,0-4.63-3.07c-2,0-3.62,1.24-3.62,3.07,0,5.4,13.89,3.57,13.89,13.1,0,5.42-4.48,8.69-10,8.69C441.55,281.62,436.55,278.84,435.64,273.19Z"/><path class="cls-1" d="M477.84,266.94c0-7.86,4.41-14.81,13.85-14.81a13.06,13.06,0,0,1,12.55,8.25l-4.81,1.9c-1.08-3.77-4-5.23-7.78-5.23-6.07,0-8.69,4.36-8.69,9.68,0,5.71,2.62,10.08,8.77,10.08,3.7,0,6.24-1.46,7.78-5.32l4.77,1.95a13,13,0,0,1-12.55,8.26C482.29,281.7,477.84,274.82,477.84,266.94Z"/><path class="cls-1" d="M509.75,271.1a10.4,10.4,0,1,1,20.79,0c0,5.75-4.12,10.6-10.39,10.6S509.75,276.85,509.75,271.1Zm15.64,0c0-3.33-1.49-6.24-5.24-6.24s-5.24,2.91-5.24,6.24,1.5,6.34,5.24,6.34S525.39,274.43,525.39,271.1Z"/><path class="cls-1" d="M529.56,227.93H1.46a1.46,1.46,0,1,1,0-2.91h528.1a1.46,1.46,0,1,1,0,2.91Z"/><path class="cls-1" d="M152.77,189.78a3.89,3.89,0,0,1-3.89-3.88V96.26c0-30.41-24.31-55.15-54.2-55.15h-.3A54.38,54.38,0,0,0,40.48,95a53.42,53.42,0,0,0,17.72,40,56.81,56.81,0,0,0,38.32,14.47h9.69a3.88,3.88,0,0,1,3.88,3.88v35.75h-14c-52.28,0-95-41.88-95.27-93.36A93.94,93.94,0,0,1,94.68,1.48h.47c51.48.25,93.37,43,93.37,95.28v93Z"/><path class="cls-1" d="M308.39,190.63A95.32,95.32,0,1,1,369.9,22.56l-19,30a3.87,3.87,0,0,1-5.79.9,55.68,55.68,0,1,0,0,83.64,3.86,3.86,0,0,1,5.79.89l19,30A95.31,95.31,0,0,1,308.39,190.63Z"/><path class="cls-1" d="M467.38,190.63A95.32,95.32,0,1,1,528.9,22.56l-19,30a3.87,3.87,0,0,1-5.79.9,55.68,55.68,0,1,0,0,83.64,3.86,3.86,0,0,1,5.79.89l19,30A95.33,95.33,0,0,1,467.38,190.63Z"/></g></svg>