<svg version="1.2" xmlns="http://www.w3.org/2000/svg" viewBox="0 0 1543 221" width="1543" height="221"><style>.a{fill:#FFFFFF}</style><path fill-rule="evenodd" class="a" d="m1477.3 91.4c-27.8-9.6-40.1-16-40.1-30.4 0-9.1 5.9-23 33.6-23 26.2 0 53.9 11.8 53.9 11.8v-40c-11.7-4.8-32.5-9.6-56-9.6-40 0-78.4 21.3-78.4 63.5 0 42.1 38.4 53.9 64.5 62.4 24.6 8 41.1 16 41.1 32 0 13.9-9.6 24.6-41.1 24.6-26.6 0-58.6-10.7-58.6-10.7v40c0 0 30.9 8.5 60.8 8.5 39.4 0 85.9-13.8 85.9-65.6 0-35.2-28.8-50.7-65.6-63.5zm-1005.5 126.5v-217.7h-60.3l-59.2 162.2-59.2-162.2h-60.3v217.7h41.1v-164.4l59.7 164.4h34.7l62.4-164.4v164.4z"/><path fill-rule="evenodd" class="a" d="m689.9 69v148.9h-45.8v-18.7c-7 4.8-28.3 21.3-63.5 21.3-35.2 0-70.4-16-70.4-63.5 0-36.8 21.3-65.1 91.2-65.1h41.6v-16.5c0-25.6-15.5-35.2-41.6-35.2-16.6 0-27.2 0.5-65.1 2.1v-42.1h79.5c46.9 0 74.1 18.6 74.1 68.8zm-46.9 53.3l-50.7 2.2c-25.6 1.1-37.3 10.7-37.3 29.3 0 20.9 15.4 29.4 34.6 29.4 20.3 0 41.6-7.5 53.4-11.8zm373.4-31.4h93.3v36.8h-93.3v52.8h109.9v37.4h-156.9v-217.7h156.9v37.3h-109.9zm289.1 127v-18.7c-17.1 9.6-33.1 21.4-65.1 21.4-57.1 0-75.2-30.4-75.2-86.5v-133.9h48v128.1c0 35.2 9.1 51.7 38.9 51.7 24.1 0 40.6-8.5 52.3-13.8v-166h48v217.7z"/><path fill-rule="evenodd" class="a" d="m933.7 106.9c0 77.4-36.8 111-109.9 111h-86.4v-217.7h86.4c69.9 0 109.9 38.9 109.9 106.7zm-49.1 0c0-51.2-26.6-68.9-62.9-68.9h-36.3v142h36.3c45.3 0 62.9-24 62.9-73.1zm-704.6-37.9v148.9h-45.9v-18.7c-6.9 4.8-28.3 21.3-63.5 21.3-35.2 0-70.4-16-70.4-63.5 0-36.8 21.3-65.1 91.2-65.1h41.6v-16.5c0-25.6-15.4-35.2-41.6-35.2-16.5 0-27.2 0.5-65 2.1v-42.1h79.4c47 0 74.2 18.6 74.2 68.8zm-47 53.3l-50.6 2.2c-25.6 1.1-37.4 10.7-37.4 29.3 0 20.9 15.5 29.4 34.7 29.4 20.3 0 41.6-7.5 53.3-11.8z"/></svg>